<mxfile host="app.diagrams.net" modified="2024-04-06T21:00:21.862Z" agent="Mozilla/5.0 (Windows NT 10.0; Win64; x64) AppleWebKit/537.36 (KHTML, like Gecko) Chrome/123.0.0.0 Safari/537.36" etag="2GqtIFDrdIBMiGjPMyP6" version="24.2.2" type="github">
  <diagram name="Page-1" id="Z3sjWFNiHxOuqIiqXtKv">
    <mxGraphModel dx="1064" dy="1218" grid="1" gridSize="10" guides="1" tooltips="1" connect="1" arrows="1" fold="1" page="0" pageScale="1" pageWidth="850" pageHeight="1100" background="#ffffff" math="0" shadow="0">
      <root>
        <mxCell id="0" />
        <mxCell id="1" parent="0" />
        <mxCell id="1U2LjCZY5VgTq_Qo9Kue-109" style="edgeStyle=orthogonalEdgeStyle;rounded=0;orthogonalLoop=1;jettySize=auto;html=1;exitX=0.25;exitY=0;exitDx=0;exitDy=0;entryX=0.5;entryY=1;entryDx=0;entryDy=0;" edge="1" parent="1" source="1U2LjCZY5VgTq_Qo9Kue-100" target="1U2LjCZY5VgTq_Qo9Kue-101">
          <mxGeometry relative="1" as="geometry">
            <Array as="points">
              <mxPoint x="185" y="-190" />
              <mxPoint x="145" y="-190" />
            </Array>
          </mxGeometry>
        </mxCell>
        <mxCell id="1U2LjCZY5VgTq_Qo9Kue-183" style="edgeStyle=orthogonalEdgeStyle;rounded=0;orthogonalLoop=1;jettySize=auto;html=1;exitX=0.75;exitY=0;exitDx=0;exitDy=0;entryX=0;entryY=1;entryDx=0;entryDy=0;" edge="1" parent="1" source="1U2LjCZY5VgTq_Qo9Kue-100" target="1U2LjCZY5VgTq_Qo9Kue-105">
          <mxGeometry relative="1" as="geometry">
            <Array as="points">
              <mxPoint x="235" y="-165" />
              <mxPoint x="275" y="-165" />
            </Array>
          </mxGeometry>
        </mxCell>
        <mxCell id="1U2LjCZY5VgTq_Qo9Kue-184" style="edgeStyle=orthogonalEdgeStyle;rounded=0;orthogonalLoop=1;jettySize=auto;html=1;exitX=1;exitY=0;exitDx=0;exitDy=0;entryX=0.5;entryY=1;entryDx=0;entryDy=0;" edge="1" parent="1" source="1U2LjCZY5VgTq_Qo9Kue-100" target="1U2LjCZY5VgTq_Qo9Kue-103">
          <mxGeometry relative="1" as="geometry">
            <mxPoint x="380" y="-235" as="targetPoint" />
            <Array as="points">
              <mxPoint x="260" y="-155" />
              <mxPoint x="380" y="-155" />
            </Array>
          </mxGeometry>
        </mxCell>
        <mxCell id="1U2LjCZY5VgTq_Qo9Kue-100" value="Book" style="whiteSpace=wrap;html=1;align=center;" vertex="1" parent="1">
          <mxGeometry x="160" y="-120" width="100" height="40" as="geometry" />
        </mxCell>
        <mxCell id="1U2LjCZY5VgTq_Qo9Kue-101" value="author_id" style="ellipse;whiteSpace=wrap;html=1;align=center;" vertex="1" parent="1">
          <mxGeometry x="100" y="-260" width="90" height="40" as="geometry" />
        </mxCell>
        <mxCell id="1U2LjCZY5VgTq_Qo9Kue-102" value="Book_no" style="ellipse;whiteSpace=wrap;html=1;align=center;fontStyle=4;" vertex="1" parent="1">
          <mxGeometry x="60" y="-185" width="100" height="40" as="geometry" />
        </mxCell>
        <mxCell id="1U2LjCZY5VgTq_Qo9Kue-103" value="Title" style="ellipse;whiteSpace=wrap;html=1;align=center;" vertex="1" parent="1">
          <mxGeometry x="330" y="-280" width="100" height="40" as="geometry" />
        </mxCell>
        <mxCell id="1U2LjCZY5VgTq_Qo9Kue-139" style="edgeStyle=orthogonalEdgeStyle;rounded=0;orthogonalLoop=1;jettySize=auto;html=1;exitX=1;exitY=0;exitDx=0;exitDy=0;" edge="1" parent="1" source="1U2LjCZY5VgTq_Qo9Kue-104" target="1U2LjCZY5VgTq_Qo9Kue-137">
          <mxGeometry relative="1" as="geometry" />
        </mxCell>
        <mxCell id="1U2LjCZY5VgTq_Qo9Kue-104" value="Author name" style="ellipse;whiteSpace=wrap;html=1;align=center;" vertex="1" parent="1">
          <mxGeometry x="200" y="-260" width="100" height="40" as="geometry" />
        </mxCell>
        <mxCell id="1U2LjCZY5VgTq_Qo9Kue-105" value="Version" style="ellipse;whiteSpace=wrap;html=1;align=center;" vertex="1" parent="1">
          <mxGeometry x="260" y="-220" width="100" height="40" as="geometry" />
        </mxCell>
        <mxCell id="1U2LjCZY5VgTq_Qo9Kue-108" style="edgeStyle=orthogonalEdgeStyle;rounded=0;orthogonalLoop=1;jettySize=auto;html=1;exitX=0.5;exitY=0;exitDx=0;exitDy=0;entryX=0.445;entryY=1.09;entryDx=0;entryDy=0;entryPerimeter=0;" edge="1" parent="1" source="1U2LjCZY5VgTq_Qo9Kue-100" target="1U2LjCZY5VgTq_Qo9Kue-104">
          <mxGeometry relative="1" as="geometry">
            <Array as="points">
              <mxPoint x="210" y="-180" />
              <mxPoint x="244" y="-180" />
            </Array>
          </mxGeometry>
        </mxCell>
        <mxCell id="1U2LjCZY5VgTq_Qo9Kue-110" style="edgeStyle=orthogonalEdgeStyle;rounded=0;orthogonalLoop=1;jettySize=auto;html=1;exitX=0;exitY=0;exitDx=0;exitDy=0;entryX=0.576;entryY=0.995;entryDx=0;entryDy=0;entryPerimeter=0;" edge="1" parent="1" source="1U2LjCZY5VgTq_Qo9Kue-100" target="1U2LjCZY5VgTq_Qo9Kue-102">
          <mxGeometry relative="1" as="geometry">
            <Array as="points">
              <mxPoint x="160" y="-130" />
              <mxPoint x="118" y="-130" />
            </Array>
          </mxGeometry>
        </mxCell>
        <mxCell id="1U2LjCZY5VgTq_Qo9Kue-140" style="edgeStyle=orthogonalEdgeStyle;rounded=0;orthogonalLoop=1;jettySize=auto;html=1;exitX=0;exitY=0;exitDx=0;exitDy=0;entryX=0.5;entryY=1;entryDx=0;entryDy=0;" edge="1" parent="1" source="1U2LjCZY5VgTq_Qo9Kue-113" target="1U2LjCZY5VgTq_Qo9Kue-115">
          <mxGeometry relative="1" as="geometry">
            <Array as="points">
              <mxPoint x="580" y="-150" />
              <mxPoint x="530" y="-150" />
            </Array>
          </mxGeometry>
        </mxCell>
        <mxCell id="1U2LjCZY5VgTq_Qo9Kue-141" style="edgeStyle=orthogonalEdgeStyle;rounded=0;orthogonalLoop=1;jettySize=auto;html=1;exitX=0.5;exitY=0;exitDx=0;exitDy=0;entryX=0.5;entryY=1;entryDx=0;entryDy=0;" edge="1" parent="1" source="1U2LjCZY5VgTq_Qo9Kue-113" target="1U2LjCZY5VgTq_Qo9Kue-116">
          <mxGeometry relative="1" as="geometry" />
        </mxCell>
        <mxCell id="1U2LjCZY5VgTq_Qo9Kue-145" style="edgeStyle=orthogonalEdgeStyle;rounded=0;orthogonalLoop=1;jettySize=auto;html=1;exitX=0.75;exitY=0;exitDx=0;exitDy=0;entryX=0.5;entryY=1;entryDx=0;entryDy=0;" edge="1" parent="1" source="1U2LjCZY5VgTq_Qo9Kue-113" target="1U2LjCZY5VgTq_Qo9Kue-144">
          <mxGeometry relative="1" as="geometry" />
        </mxCell>
        <mxCell id="1U2LjCZY5VgTq_Qo9Kue-146" style="edgeStyle=orthogonalEdgeStyle;rounded=0;orthogonalLoop=1;jettySize=auto;html=1;exitX=1;exitY=0;exitDx=0;exitDy=0;entryX=0.5;entryY=1;entryDx=0;entryDy=0;" edge="1" parent="1" source="1U2LjCZY5VgTq_Qo9Kue-113" target="1U2LjCZY5VgTq_Qo9Kue-118">
          <mxGeometry relative="1" as="geometry">
            <mxPoint x="730" y="-210" as="targetPoint" />
            <Array as="points">
              <mxPoint x="680" y="-160" />
              <mxPoint x="710" y="-160" />
            </Array>
          </mxGeometry>
        </mxCell>
        <mxCell id="1U2LjCZY5VgTq_Qo9Kue-113" value="Authors" style="whiteSpace=wrap;html=1;align=center;" vertex="1" parent="1">
          <mxGeometry x="580" y="-120" width="100" height="40" as="geometry" />
        </mxCell>
        <mxCell id="1U2LjCZY5VgTq_Qo9Kue-115" value="Author_id" style="ellipse;whiteSpace=wrap;html=1;align=center;fontStyle=4;" vertex="1" parent="1">
          <mxGeometry x="480" y="-210" width="100" height="40" as="geometry" />
        </mxCell>
        <mxCell id="1U2LjCZY5VgTq_Qo9Kue-116" value="Name" style="ellipse;whiteSpace=wrap;html=1;align=center;" vertex="1" parent="1">
          <mxGeometry x="550" y="-240" width="75" height="30" as="geometry" />
        </mxCell>
        <mxCell id="1U2LjCZY5VgTq_Qo9Kue-118" value="B-date" style="ellipse;whiteSpace=wrap;html=1;align=center;" vertex="1" parent="1">
          <mxGeometry x="660" y="-250" width="100" height="40" as="geometry" />
        </mxCell>
        <mxCell id="1U2LjCZY5VgTq_Qo9Kue-126" style="edgeStyle=orthogonalEdgeStyle;rounded=0;orthogonalLoop=1;jettySize=auto;html=1;entryX=0.5;entryY=1;entryDx=0;entryDy=0;exitX=0;exitY=0.5;exitDx=0;exitDy=0;" edge="1" parent="1" source="1U2LjCZY5VgTq_Qo9Kue-119" target="1U2LjCZY5VgTq_Qo9Kue-121">
          <mxGeometry relative="1" as="geometry">
            <mxPoint x="140" y="100" as="sourcePoint" />
          </mxGeometry>
        </mxCell>
        <mxCell id="1U2LjCZY5VgTq_Qo9Kue-127" style="edgeStyle=orthogonalEdgeStyle;rounded=0;orthogonalLoop=1;jettySize=auto;html=1;exitX=0;exitY=0.75;exitDx=0;exitDy=0;entryX=0.5;entryY=0;entryDx=0;entryDy=0;" edge="1" parent="1" source="1U2LjCZY5VgTq_Qo9Kue-119" target="1U2LjCZY5VgTq_Qo9Kue-120">
          <mxGeometry relative="1" as="geometry" />
        </mxCell>
        <mxCell id="1U2LjCZY5VgTq_Qo9Kue-128" style="edgeStyle=orthogonalEdgeStyle;rounded=0;orthogonalLoop=1;jettySize=auto;html=1;exitX=1;exitY=0.5;exitDx=0;exitDy=0;entryX=0.5;entryY=1;entryDx=0;entryDy=0;" edge="1" parent="1" source="1U2LjCZY5VgTq_Qo9Kue-119" target="1U2LjCZY5VgTq_Qo9Kue-122">
          <mxGeometry relative="1" as="geometry" />
        </mxCell>
        <mxCell id="1U2LjCZY5VgTq_Qo9Kue-217" style="edgeStyle=orthogonalEdgeStyle;rounded=0;orthogonalLoop=1;jettySize=auto;html=1;exitX=0.75;exitY=1;exitDx=0;exitDy=0;entryX=0;entryY=0.5;entryDx=0;entryDy=0;" edge="1" parent="1" source="1U2LjCZY5VgTq_Qo9Kue-119" target="1U2LjCZY5VgTq_Qo9Kue-226">
          <mxGeometry relative="1" as="geometry">
            <mxPoint x="280.0000000000016" y="210" as="targetPoint" />
          </mxGeometry>
        </mxCell>
        <mxCell id="1U2LjCZY5VgTq_Qo9Kue-219" style="edgeStyle=orthogonalEdgeStyle;rounded=0;orthogonalLoop=1;jettySize=auto;html=1;exitX=0.25;exitY=1;exitDx=0;exitDy=0;entryX=1;entryY=0.5;entryDx=0;entryDy=0;" edge="1" parent="1" source="1U2LjCZY5VgTq_Qo9Kue-119" target="1U2LjCZY5VgTq_Qo9Kue-218">
          <mxGeometry relative="1" as="geometry" />
        </mxCell>
        <mxCell id="1U2LjCZY5VgTq_Qo9Kue-119" value="Students" style="whiteSpace=wrap;html=1;align=center;" vertex="1" parent="1">
          <mxGeometry x="160" y="80" width="100" height="40" as="geometry" />
        </mxCell>
        <mxCell id="1U2LjCZY5VgTq_Qo9Kue-223" style="edgeStyle=orthogonalEdgeStyle;rounded=0;orthogonalLoop=1;jettySize=auto;html=1;exitX=0;exitY=0;exitDx=0;exitDy=0;entryX=1;entryY=0.5;entryDx=0;entryDy=0;" edge="1" parent="1" source="1U2LjCZY5VgTq_Qo9Kue-120" target="1U2LjCZY5VgTq_Qo9Kue-220">
          <mxGeometry relative="1" as="geometry" />
        </mxCell>
        <mxCell id="1U2LjCZY5VgTq_Qo9Kue-224" style="edgeStyle=orthogonalEdgeStyle;rounded=0;orthogonalLoop=1;jettySize=auto;html=1;exitX=0;exitY=0.5;exitDx=0;exitDy=0;entryX=1;entryY=0.5;entryDx=0;entryDy=0;" edge="1" parent="1" source="1U2LjCZY5VgTq_Qo9Kue-120" target="1U2LjCZY5VgTq_Qo9Kue-221">
          <mxGeometry relative="1" as="geometry" />
        </mxCell>
        <mxCell id="1U2LjCZY5VgTq_Qo9Kue-225" style="edgeStyle=orthogonalEdgeStyle;rounded=0;orthogonalLoop=1;jettySize=auto;html=1;exitX=0;exitY=1;exitDx=0;exitDy=0;entryX=1;entryY=0.5;entryDx=0;entryDy=0;" edge="1" parent="1" source="1U2LjCZY5VgTq_Qo9Kue-120" target="1U2LjCZY5VgTq_Qo9Kue-222">
          <mxGeometry relative="1" as="geometry" />
        </mxCell>
        <mxCell id="1U2LjCZY5VgTq_Qo9Kue-120" value="Name" style="ellipse;whiteSpace=wrap;html=1;align=center;" vertex="1" parent="1">
          <mxGeometry x="45" y="130" width="100" height="40" as="geometry" />
        </mxCell>
        <mxCell id="1U2LjCZY5VgTq_Qo9Kue-121" value="student_id" style="ellipse;whiteSpace=wrap;html=1;align=center;fontStyle=4;" vertex="1" parent="1">
          <mxGeometry x="45" y="30" width="100" height="40" as="geometry" />
        </mxCell>
        <mxCell id="1U2LjCZY5VgTq_Qo9Kue-122" value="DOB" style="ellipse;whiteSpace=wrap;html=1;align=center;" vertex="1" parent="1">
          <mxGeometry x="280" y="40" width="100" height="40" as="geometry" />
        </mxCell>
        <mxCell id="1U2LjCZY5VgTq_Qo9Kue-123" value="Age" style="ellipse;whiteSpace=wrap;html=1;align=center;dashed=1;" vertex="1" parent="1">
          <mxGeometry x="280" y="130" width="100" height="40" as="geometry" />
        </mxCell>
        <mxCell id="1U2LjCZY5VgTq_Qo9Kue-129" style="edgeStyle=orthogonalEdgeStyle;rounded=0;orthogonalLoop=1;jettySize=auto;html=1;exitX=1;exitY=0.75;exitDx=0;exitDy=0;entryX=0.5;entryY=0;entryDx=0;entryDy=0;" edge="1" parent="1" source="1U2LjCZY5VgTq_Qo9Kue-119" target="1U2LjCZY5VgTq_Qo9Kue-123">
          <mxGeometry relative="1" as="geometry">
            <mxPoint x="413" y="23" as="targetPoint" />
          </mxGeometry>
        </mxCell>
        <mxCell id="1U2LjCZY5VgTq_Qo9Kue-131" value="&lt;u&gt;&lt;span style=&quot;line-height: 107%; font-family: Calibri, sans-serif;&quot;&gt;&lt;font style=&quot;font-size: 19px;&quot;&gt;author_no&lt;/font&gt;&lt;/span&gt;&lt;/u&gt;" style="ellipse;whiteSpace=wrap;html=1;align=center;" vertex="1" parent="1">
          <mxGeometry x="470" y="125" width="100" height="40" as="geometry" />
        </mxCell>
        <mxCell id="1U2LjCZY5VgTq_Qo9Kue-132" value="research_no" style="ellipse;whiteSpace=wrap;html=1;align=center;fontStyle=4;" vertex="1" parent="1">
          <mxGeometry x="470" y="35" width="100" height="40" as="geometry" />
        </mxCell>
        <mxCell id="1U2LjCZY5VgTq_Qo9Kue-133" value="Vol" style="ellipse;whiteSpace=wrap;html=1;align=center;" vertex="1" parent="1">
          <mxGeometry x="690" y="35" width="100" height="40" as="geometry" />
        </mxCell>
        <mxCell id="1U2LjCZY5VgTq_Qo9Kue-134" value="journal" style="ellipse;whiteSpace=wrap;html=1;align=center;" vertex="1" parent="1">
          <mxGeometry x="690" y="125" width="100" height="40" as="geometry" />
        </mxCell>
        <mxCell id="1U2LjCZY5VgTq_Qo9Kue-136" value="Family name" style="ellipse;whiteSpace=wrap;html=1;align=center;" vertex="1" parent="1">
          <mxGeometry x="160" y="-340" width="100" height="40" as="geometry" />
        </mxCell>
        <mxCell id="1U2LjCZY5VgTq_Qo9Kue-137" value="First name" style="ellipse;whiteSpace=wrap;html=1;align=center;" vertex="1" parent="1">
          <mxGeometry x="270" y="-340" width="100" height="40" as="geometry" />
        </mxCell>
        <mxCell id="1U2LjCZY5VgTq_Qo9Kue-138" style="edgeStyle=orthogonalEdgeStyle;rounded=0;orthogonalLoop=1;jettySize=auto;html=1;exitX=0;exitY=0;exitDx=0;exitDy=0;entryX=0.556;entryY=0.978;entryDx=0;entryDy=0;entryPerimeter=0;" edge="1" parent="1" source="1U2LjCZY5VgTq_Qo9Kue-104" target="1U2LjCZY5VgTq_Qo9Kue-136">
          <mxGeometry relative="1" as="geometry" />
        </mxCell>
        <mxCell id="1U2LjCZY5VgTq_Qo9Kue-144" value="Nationality" style="ellipse;shape=doubleEllipse;margin=3;whiteSpace=wrap;html=1;align=center;" vertex="1" parent="1">
          <mxGeometry x="610" y="-205" width="90" height="30" as="geometry" />
        </mxCell>
        <mxCell id="1U2LjCZY5VgTq_Qo9Kue-152" value="Book_id" style="ellipse;whiteSpace=wrap;html=1;align=center;fontStyle=4;" vertex="1" parent="1">
          <mxGeometry x="-100" y="-50" width="100" height="40" as="geometry" />
        </mxCell>
        <mxCell id="1U2LjCZY5VgTq_Qo9Kue-156" value="&lt;span style=&quot;line-height: 107%; font-family: Calibri, sans-serif;&quot;&gt;&lt;font style=&quot;font-size: 18px;&quot;&gt;author_id&lt;/font&gt;&lt;/span&gt;" style="ellipse;whiteSpace=wrap;html=1;align=center;" vertex="1" parent="1">
          <mxGeometry x="-100" y="-190" width="100" height="40" as="geometry" />
        </mxCell>
        <mxCell id="1U2LjCZY5VgTq_Qo9Kue-160" value="Type" style="ellipse;shape=doubleEllipse;margin=3;whiteSpace=wrap;html=1;align=center;" vertex="1" parent="1">
          <mxGeometry x="15" y="-50" width="100" height="40" as="geometry" />
        </mxCell>
        <mxCell id="1U2LjCZY5VgTq_Qo9Kue-162" value="Belongs to" style="shape=rhombus;perimeter=rhombusPerimeter;whiteSpace=wrap;html=1;align=center;" vertex="1" parent="1">
          <mxGeometry x="370" y="-130" width="120" height="60" as="geometry" />
        </mxCell>
        <mxCell id="1U2LjCZY5VgTq_Qo9Kue-168" value="Borrow" style="shape=rhombus;perimeter=rhombusPerimeter;whiteSpace=wrap;html=1;align=center;" vertex="1" parent="1">
          <mxGeometry x="150" y="-30" width="120" height="60" as="geometry" />
        </mxCell>
        <mxCell id="1U2LjCZY5VgTq_Qo9Kue-178" value="" style="shape=link;html=1;rounded=0;exitX=0;exitY=0.5;exitDx=0;exitDy=0;entryX=1;entryY=0.5;entryDx=0;entryDy=0;" edge="1" parent="1" source="1U2LjCZY5VgTq_Qo9Kue-113" target="1U2LjCZY5VgTq_Qo9Kue-162">
          <mxGeometry relative="1" as="geometry">
            <mxPoint x="570" y="-80" as="sourcePoint" />
            <mxPoint x="500" y="-100" as="targetPoint" />
          </mxGeometry>
        </mxCell>
        <mxCell id="1U2LjCZY5VgTq_Qo9Kue-179" value="N" style="resizable=0;html=1;whiteSpace=wrap;align=right;verticalAlign=bottom;" connectable="0" vertex="1" parent="1U2LjCZY5VgTq_Qo9Kue-178">
          <mxGeometry x="1" relative="1" as="geometry">
            <mxPoint x="10" as="offset" />
          </mxGeometry>
        </mxCell>
        <mxCell id="1U2LjCZY5VgTq_Qo9Kue-180" value="" style="endArrow=none;html=1;rounded=0;entryX=0;entryY=0.5;entryDx=0;entryDy=0;exitX=1;exitY=0.5;exitDx=0;exitDy=0;" edge="1" parent="1" source="1U2LjCZY5VgTq_Qo9Kue-100" target="1U2LjCZY5VgTq_Qo9Kue-162">
          <mxGeometry relative="1" as="geometry">
            <mxPoint x="210" y="-100" as="sourcePoint" />
            <mxPoint x="400" y="-10" as="targetPoint" />
          </mxGeometry>
        </mxCell>
        <mxCell id="1U2LjCZY5VgTq_Qo9Kue-181" value="N" style="resizable=0;html=1;whiteSpace=wrap;align=right;verticalAlign=bottom;" connectable="0" vertex="1" parent="1U2LjCZY5VgTq_Qo9Kue-180">
          <mxGeometry x="1" relative="1" as="geometry" />
        </mxCell>
        <mxCell id="1U2LjCZY5VgTq_Qo9Kue-188" value="" style="shape=link;html=1;rounded=0;entryX=0.5;entryY=0;entryDx=0;entryDy=0;exitX=0.5;exitY=1;exitDx=0;exitDy=0;" edge="1" parent="1" source="1U2LjCZY5VgTq_Qo9Kue-100" target="1U2LjCZY5VgTq_Qo9Kue-168">
          <mxGeometry relative="1" as="geometry">
            <mxPoint x="190" y="120" as="sourcePoint" />
            <mxPoint x="350" y="120" as="targetPoint" />
          </mxGeometry>
        </mxCell>
        <mxCell id="1U2LjCZY5VgTq_Qo9Kue-189" value="N" style="resizable=0;html=1;whiteSpace=wrap;align=right;verticalAlign=bottom;" connectable="0" vertex="1" parent="1U2LjCZY5VgTq_Qo9Kue-188">
          <mxGeometry x="1" relative="1" as="geometry">
            <mxPoint x="-10" as="offset" />
          </mxGeometry>
        </mxCell>
        <mxCell id="1U2LjCZY5VgTq_Qo9Kue-190" value="" style="endArrow=none;html=1;rounded=0;entryX=0.5;entryY=1;entryDx=0;entryDy=0;exitX=0.5;exitY=0;exitDx=0;exitDy=0;" edge="1" parent="1" source="1U2LjCZY5VgTq_Qo9Kue-119" target="1U2LjCZY5VgTq_Qo9Kue-168">
          <mxGeometry relative="1" as="geometry">
            <mxPoint x="190" y="120" as="sourcePoint" />
            <mxPoint x="350" y="120" as="targetPoint" />
          </mxGeometry>
        </mxCell>
        <mxCell id="1U2LjCZY5VgTq_Qo9Kue-191" value="1" style="resizable=0;html=1;whiteSpace=wrap;align=right;verticalAlign=bottom;" connectable="0" vertex="1" parent="1U2LjCZY5VgTq_Qo9Kue-190">
          <mxGeometry x="1" relative="1" as="geometry">
            <mxPoint x="-10" y="20" as="offset" />
          </mxGeometry>
        </mxCell>
        <mxCell id="1U2LjCZY5VgTq_Qo9Kue-193" style="edgeStyle=orthogonalEdgeStyle;rounded=0;orthogonalLoop=1;jettySize=auto;html=1;exitX=0;exitY=0.75;exitDx=0;exitDy=0;entryX=0.5;entryY=0;entryDx=0;entryDy=0;" edge="1" parent="1" source="1U2LjCZY5VgTq_Qo9Kue-192" target="1U2LjCZY5VgTq_Qo9Kue-131">
          <mxGeometry relative="1" as="geometry" />
        </mxCell>
        <mxCell id="1U2LjCZY5VgTq_Qo9Kue-195" style="edgeStyle=orthogonalEdgeStyle;rounded=0;orthogonalLoop=1;jettySize=auto;html=1;exitX=0;exitY=0.5;exitDx=0;exitDy=0;entryX=0.5;entryY=1;entryDx=0;entryDy=0;" edge="1" parent="1" source="1U2LjCZY5VgTq_Qo9Kue-192" target="1U2LjCZY5VgTq_Qo9Kue-132">
          <mxGeometry relative="1" as="geometry" />
        </mxCell>
        <mxCell id="1U2LjCZY5VgTq_Qo9Kue-196" style="edgeStyle=orthogonalEdgeStyle;rounded=0;orthogonalLoop=1;jettySize=auto;html=1;exitX=1;exitY=0.5;exitDx=0;exitDy=0;entryX=0.5;entryY=1;entryDx=0;entryDy=0;" edge="1" parent="1" source="1U2LjCZY5VgTq_Qo9Kue-192" target="1U2LjCZY5VgTq_Qo9Kue-133">
          <mxGeometry relative="1" as="geometry" />
        </mxCell>
        <mxCell id="1U2LjCZY5VgTq_Qo9Kue-197" style="edgeStyle=orthogonalEdgeStyle;rounded=0;orthogonalLoop=1;jettySize=auto;html=1;exitX=1;exitY=0.75;exitDx=0;exitDy=0;entryX=0.5;entryY=0;entryDx=0;entryDy=0;" edge="1" parent="1" source="1U2LjCZY5VgTq_Qo9Kue-192" target="1U2LjCZY5VgTq_Qo9Kue-134">
          <mxGeometry relative="1" as="geometry" />
        </mxCell>
        <mxCell id="1U2LjCZY5VgTq_Qo9Kue-192" value="&lt;font style=&quot;font-size: 11px;&quot;&gt;Authors_research&lt;/font&gt;" style="shape=ext;margin=3;double=1;whiteSpace=wrap;html=1;align=center;" vertex="1" parent="1">
          <mxGeometry x="580" y="75" width="100" height="40" as="geometry" />
        </mxCell>
        <mxCell id="1U2LjCZY5VgTq_Qo9Kue-198" value="have" style="shape=rhombus;double=1;perimeter=rhombusPerimeter;whiteSpace=wrap;html=1;align=center;" vertex="1" parent="1">
          <mxGeometry x="570" y="-30" width="120" height="60" as="geometry" />
        </mxCell>
        <mxCell id="1U2LjCZY5VgTq_Qo9Kue-199" value="" style="endArrow=none;html=1;rounded=0;entryX=0.5;entryY=0;entryDx=0;entryDy=0;exitX=0.5;exitY=1;exitDx=0;exitDy=0;" edge="1" parent="1" source="1U2LjCZY5VgTq_Qo9Kue-113" target="1U2LjCZY5VgTq_Qo9Kue-198">
          <mxGeometry relative="1" as="geometry">
            <mxPoint x="580" y="10" as="sourcePoint" />
            <mxPoint x="740" y="10" as="targetPoint" />
          </mxGeometry>
        </mxCell>
        <mxCell id="1U2LjCZY5VgTq_Qo9Kue-200" value="1" style="resizable=0;html=1;whiteSpace=wrap;align=right;verticalAlign=bottom;" connectable="0" vertex="1" parent="1U2LjCZY5VgTq_Qo9Kue-199">
          <mxGeometry x="1" relative="1" as="geometry">
            <mxPoint x="-5" as="offset" />
          </mxGeometry>
        </mxCell>
        <mxCell id="1U2LjCZY5VgTq_Qo9Kue-205" value="" style="shape=link;html=1;rounded=0;exitX=0.5;exitY=0;exitDx=0;exitDy=0;entryX=0.5;entryY=1;entryDx=0;entryDy=0;" edge="1" parent="1" source="1U2LjCZY5VgTq_Qo9Kue-192" target="1U2LjCZY5VgTq_Qo9Kue-198">
          <mxGeometry relative="1" as="geometry">
            <mxPoint x="570" y="-5" as="sourcePoint" />
            <mxPoint x="630" y="35" as="targetPoint" />
          </mxGeometry>
        </mxCell>
        <mxCell id="1U2LjCZY5VgTq_Qo9Kue-206" value="N" style="resizable=0;html=1;whiteSpace=wrap;align=right;verticalAlign=bottom;" connectable="0" vertex="1" parent="1U2LjCZY5VgTq_Qo9Kue-205">
          <mxGeometry x="1" relative="1" as="geometry">
            <mxPoint x="-5" y="20" as="offset" />
          </mxGeometry>
        </mxCell>
        <mxCell id="1U2LjCZY5VgTq_Qo9Kue-214" style="edgeStyle=orthogonalEdgeStyle;rounded=0;orthogonalLoop=1;jettySize=auto;html=1;exitX=1;exitY=1;exitDx=0;exitDy=0;entryX=0.5;entryY=0;entryDx=0;entryDy=0;" edge="1" parent="1" source="1U2LjCZY5VgTq_Qo9Kue-207" target="1U2LjCZY5VgTq_Qo9Kue-160">
          <mxGeometry relative="1" as="geometry">
            <Array as="points">
              <mxPoint y="-70" />
              <mxPoint x="65" y="-70" />
            </Array>
          </mxGeometry>
        </mxCell>
        <mxCell id="1U2LjCZY5VgTq_Qo9Kue-215" style="edgeStyle=orthogonalEdgeStyle;rounded=0;orthogonalLoop=1;jettySize=auto;html=1;exitX=0.5;exitY=0;exitDx=0;exitDy=0;entryX=0.5;entryY=1;entryDx=0;entryDy=0;" edge="1" parent="1" source="1U2LjCZY5VgTq_Qo9Kue-207" target="1U2LjCZY5VgTq_Qo9Kue-156">
          <mxGeometry relative="1" as="geometry" />
        </mxCell>
        <mxCell id="1U2LjCZY5VgTq_Qo9Kue-207" value="Book_type" style="shape=ext;margin=3;double=1;whiteSpace=wrap;html=1;align=center;" vertex="1" parent="1">
          <mxGeometry x="-100" y="-120" width="100" height="40" as="geometry" />
        </mxCell>
        <mxCell id="1U2LjCZY5VgTq_Qo9Kue-208" value="has" style="shape=rhombus;double=1;perimeter=rhombusPerimeter;whiteSpace=wrap;html=1;align=center;" vertex="1" parent="1">
          <mxGeometry x="45" y="-120" width="70" height="40" as="geometry" />
        </mxCell>
        <mxCell id="1U2LjCZY5VgTq_Qo9Kue-209" value="" style="shape=link;html=1;rounded=0;entryX=0;entryY=0.5;entryDx=0;entryDy=0;exitX=1;exitY=0.5;exitDx=0;exitDy=0;" edge="1" parent="1" source="1U2LjCZY5VgTq_Qo9Kue-207" target="1U2LjCZY5VgTq_Qo9Kue-208">
          <mxGeometry relative="1" as="geometry">
            <mxPoint x="10" y="-150" as="sourcePoint" />
            <mxPoint x="170" y="-150" as="targetPoint" />
          </mxGeometry>
        </mxCell>
        <mxCell id="1U2LjCZY5VgTq_Qo9Kue-210" value="N" style="resizable=0;html=1;whiteSpace=wrap;align=right;verticalAlign=bottom;" connectable="0" vertex="1" parent="1U2LjCZY5VgTq_Qo9Kue-209">
          <mxGeometry x="1" relative="1" as="geometry">
            <mxPoint as="offset" />
          </mxGeometry>
        </mxCell>
        <mxCell id="1U2LjCZY5VgTq_Qo9Kue-211" value="" style="endArrow=none;html=1;rounded=0;entryX=1;entryY=0.5;entryDx=0;entryDy=0;exitX=0;exitY=0.5;exitDx=0;exitDy=0;" edge="1" parent="1">
          <mxGeometry relative="1" as="geometry">
            <mxPoint x="160" y="-100.17" as="sourcePoint" />
            <mxPoint x="115" y="-100.17" as="targetPoint" />
          </mxGeometry>
        </mxCell>
        <mxCell id="1U2LjCZY5VgTq_Qo9Kue-212" value="1" style="resizable=0;html=1;whiteSpace=wrap;align=right;verticalAlign=bottom;" connectable="0" vertex="1" parent="1U2LjCZY5VgTq_Qo9Kue-211">
          <mxGeometry x="1" relative="1" as="geometry">
            <mxPoint x="15" as="offset" />
          </mxGeometry>
        </mxCell>
        <mxCell id="1U2LjCZY5VgTq_Qo9Kue-213" style="edgeStyle=orthogonalEdgeStyle;rounded=0;orthogonalLoop=1;jettySize=auto;html=1;exitX=0.5;exitY=1;exitDx=0;exitDy=0;entryX=0.5;entryY=0;entryDx=0;entryDy=0;" edge="1" parent="1" source="1U2LjCZY5VgTq_Qo9Kue-207" target="1U2LjCZY5VgTq_Qo9Kue-152">
          <mxGeometry relative="1" as="geometry" />
        </mxCell>
        <mxCell id="1U2LjCZY5VgTq_Qo9Kue-218" value="&lt;span style=&quot;font-size: 19px; line-height: 107%; font-family: Calibri, sans-serif;&quot;&gt;book_no&lt;/span&gt;" style="ellipse;whiteSpace=wrap;html=1;align=center;" vertex="1" parent="1">
          <mxGeometry x="45" y="190" width="100" height="40" as="geometry" />
        </mxCell>
        <mxCell id="1U2LjCZY5VgTq_Qo9Kue-220" value="&lt;span style=&quot;border-bottom: 1px dotted&quot;&gt;First Name&lt;/span&gt;" style="ellipse;whiteSpace=wrap;html=1;align=center;" vertex="1" parent="1">
          <mxGeometry x="-100" y="80" width="100" height="40" as="geometry" />
        </mxCell>
        <mxCell id="1U2LjCZY5VgTq_Qo9Kue-221" value="&lt;span style=&quot;border-bottom: 1px dotted&quot;&gt;Middle Name&lt;/span&gt;" style="ellipse;whiteSpace=wrap;html=1;align=center;" vertex="1" parent="1">
          <mxGeometry x="-100" y="130" width="100" height="40" as="geometry" />
        </mxCell>
        <mxCell id="1U2LjCZY5VgTq_Qo9Kue-222" value="&lt;span style=&quot;border-bottom: 1px dotted&quot;&gt;Family Name&lt;/span&gt;" style="ellipse;whiteSpace=wrap;html=1;align=center;" vertex="1" parent="1">
          <mxGeometry x="-100" y="180" width="100" height="40" as="geometry" />
        </mxCell>
        <mxCell id="1U2LjCZY5VgTq_Qo9Kue-226" value="&lt;span style=&quot;font-family: Calibri, sans-serif; font-size: 16px;&quot;&gt;No_of_books&lt;/span&gt;" style="ellipse;whiteSpace=wrap;html=1;align=center;dashed=1;" vertex="1" parent="1">
          <mxGeometry x="280" y="180" width="100" height="40" as="geometry" />
        </mxCell>
        <mxCell id="1U2LjCZY5VgTq_Qo9Kue-227" value="Book" style="shape=table;startSize=30;container=1;collapsible=1;childLayout=tableLayout;fixedRows=1;rowLines=0;fontStyle=1;align=center;resizeLast=1;html=1;" vertex="1" parent="1">
          <mxGeometry x="870" y="-280" width="180" height="150" as="geometry" />
        </mxCell>
        <mxCell id="1U2LjCZY5VgTq_Qo9Kue-228" value="" style="shape=tableRow;horizontal=0;startSize=0;swimlaneHead=0;swimlaneBody=0;fillColor=none;collapsible=0;dropTarget=0;points=[[0,0.5],[1,0.5]];portConstraint=eastwest;top=0;left=0;right=0;bottom=1;" vertex="1" parent="1U2LjCZY5VgTq_Qo9Kue-227">
          <mxGeometry y="30" width="180" height="30" as="geometry" />
        </mxCell>
        <mxCell id="1U2LjCZY5VgTq_Qo9Kue-229" value="PK" style="shape=partialRectangle;connectable=0;fillColor=none;top=0;left=0;bottom=0;right=0;fontStyle=1;overflow=hidden;whiteSpace=wrap;html=1;" vertex="1" parent="1U2LjCZY5VgTq_Qo9Kue-228">
          <mxGeometry width="30" height="30" as="geometry">
            <mxRectangle width="30" height="30" as="alternateBounds" />
          </mxGeometry>
        </mxCell>
        <mxCell id="1U2LjCZY5VgTq_Qo9Kue-230" value="Book_no" style="shape=partialRectangle;connectable=0;fillColor=none;top=0;left=0;bottom=0;right=0;align=left;spacingLeft=6;fontStyle=5;overflow=hidden;whiteSpace=wrap;html=1;" vertex="1" parent="1U2LjCZY5VgTq_Qo9Kue-228">
          <mxGeometry x="30" width="150" height="30" as="geometry">
            <mxRectangle width="150" height="30" as="alternateBounds" />
          </mxGeometry>
        </mxCell>
        <mxCell id="1U2LjCZY5VgTq_Qo9Kue-231" value="" style="shape=tableRow;horizontal=0;startSize=0;swimlaneHead=0;swimlaneBody=0;fillColor=none;collapsible=0;dropTarget=0;points=[[0,0.5],[1,0.5]];portConstraint=eastwest;top=0;left=0;right=0;bottom=0;" vertex="1" parent="1U2LjCZY5VgTq_Qo9Kue-227">
          <mxGeometry y="60" width="180" height="30" as="geometry" />
        </mxCell>
        <mxCell id="1U2LjCZY5VgTq_Qo9Kue-232" value="FK" style="shape=partialRectangle;connectable=0;fillColor=none;top=0;left=0;bottom=0;right=0;editable=1;overflow=hidden;whiteSpace=wrap;html=1;" vertex="1" parent="1U2LjCZY5VgTq_Qo9Kue-231">
          <mxGeometry width="30" height="30" as="geometry">
            <mxRectangle width="30" height="30" as="alternateBounds" />
          </mxGeometry>
        </mxCell>
        <mxCell id="1U2LjCZY5VgTq_Qo9Kue-233" value="author_id" style="shape=partialRectangle;connectable=0;fillColor=none;top=0;left=0;bottom=0;right=0;align=left;spacingLeft=6;overflow=hidden;whiteSpace=wrap;html=1;" vertex="1" parent="1U2LjCZY5VgTq_Qo9Kue-231">
          <mxGeometry x="30" width="150" height="30" as="geometry">
            <mxRectangle width="150" height="30" as="alternateBounds" />
          </mxGeometry>
        </mxCell>
        <mxCell id="1U2LjCZY5VgTq_Qo9Kue-234" value="" style="shape=tableRow;horizontal=0;startSize=0;swimlaneHead=0;swimlaneBody=0;fillColor=none;collapsible=0;dropTarget=0;points=[[0,0.5],[1,0.5]];portConstraint=eastwest;top=0;left=0;right=0;bottom=0;" vertex="1" parent="1U2LjCZY5VgTq_Qo9Kue-227">
          <mxGeometry y="90" width="180" height="30" as="geometry" />
        </mxCell>
        <mxCell id="1U2LjCZY5VgTq_Qo9Kue-235" value="" style="shape=partialRectangle;connectable=0;fillColor=none;top=0;left=0;bottom=0;right=0;editable=1;overflow=hidden;whiteSpace=wrap;html=1;" vertex="1" parent="1U2LjCZY5VgTq_Qo9Kue-234">
          <mxGeometry width="30" height="30" as="geometry">
            <mxRectangle width="30" height="30" as="alternateBounds" />
          </mxGeometry>
        </mxCell>
        <mxCell id="1U2LjCZY5VgTq_Qo9Kue-236" value="Title" style="shape=partialRectangle;connectable=0;fillColor=none;top=0;left=0;bottom=0;right=0;align=left;spacingLeft=6;overflow=hidden;whiteSpace=wrap;html=1;" vertex="1" parent="1U2LjCZY5VgTq_Qo9Kue-234">
          <mxGeometry x="30" width="150" height="30" as="geometry">
            <mxRectangle width="150" height="30" as="alternateBounds" />
          </mxGeometry>
        </mxCell>
        <mxCell id="1U2LjCZY5VgTq_Qo9Kue-237" value="" style="shape=tableRow;horizontal=0;startSize=0;swimlaneHead=0;swimlaneBody=0;fillColor=none;collapsible=0;dropTarget=0;points=[[0,0.5],[1,0.5]];portConstraint=eastwest;top=0;left=0;right=0;bottom=0;" vertex="1" parent="1U2LjCZY5VgTq_Qo9Kue-227">
          <mxGeometry y="120" width="180" height="30" as="geometry" />
        </mxCell>
        <mxCell id="1U2LjCZY5VgTq_Qo9Kue-238" value="" style="shape=partialRectangle;connectable=0;fillColor=none;top=0;left=0;bottom=0;right=0;editable=1;overflow=hidden;whiteSpace=wrap;html=1;" vertex="1" parent="1U2LjCZY5VgTq_Qo9Kue-237">
          <mxGeometry width="30" height="30" as="geometry">
            <mxRectangle width="30" height="30" as="alternateBounds" />
          </mxGeometry>
        </mxCell>
        <mxCell id="1U2LjCZY5VgTq_Qo9Kue-239" value="Version" style="shape=partialRectangle;connectable=0;fillColor=none;top=0;left=0;bottom=0;right=0;align=left;spacingLeft=6;overflow=hidden;whiteSpace=wrap;html=1;" vertex="1" parent="1U2LjCZY5VgTq_Qo9Kue-237">
          <mxGeometry x="30" width="150" height="30" as="geometry">
            <mxRectangle width="150" height="30" as="alternateBounds" />
          </mxGeometry>
        </mxCell>
        <mxCell id="1U2LjCZY5VgTq_Qo9Kue-240" value="Authors" style="shape=table;startSize=30;container=1;collapsible=1;childLayout=tableLayout;fixedRows=1;rowLines=0;fontStyle=1;align=center;resizeLast=1;html=1;" vertex="1" parent="1">
          <mxGeometry x="870" y="-110" width="180" height="150" as="geometry" />
        </mxCell>
        <mxCell id="1U2LjCZY5VgTq_Qo9Kue-241" value="" style="shape=tableRow;horizontal=0;startSize=0;swimlaneHead=0;swimlaneBody=0;fillColor=none;collapsible=0;dropTarget=0;points=[[0,0.5],[1,0.5]];portConstraint=eastwest;top=0;left=0;right=0;bottom=1;" vertex="1" parent="1U2LjCZY5VgTq_Qo9Kue-240">
          <mxGeometry y="30" width="180" height="30" as="geometry" />
        </mxCell>
        <mxCell id="1U2LjCZY5VgTq_Qo9Kue-242" value="PK" style="shape=partialRectangle;connectable=0;fillColor=none;top=0;left=0;bottom=0;right=0;fontStyle=1;overflow=hidden;whiteSpace=wrap;html=1;" vertex="1" parent="1U2LjCZY5VgTq_Qo9Kue-241">
          <mxGeometry width="30" height="30" as="geometry">
            <mxRectangle width="30" height="30" as="alternateBounds" />
          </mxGeometry>
        </mxCell>
        <mxCell id="1U2LjCZY5VgTq_Qo9Kue-243" value="Author_id" style="shape=partialRectangle;connectable=0;fillColor=none;top=0;left=0;bottom=0;right=0;align=left;spacingLeft=6;fontStyle=5;overflow=hidden;whiteSpace=wrap;html=1;" vertex="1" parent="1U2LjCZY5VgTq_Qo9Kue-241">
          <mxGeometry x="30" width="150" height="30" as="geometry">
            <mxRectangle width="150" height="30" as="alternateBounds" />
          </mxGeometry>
        </mxCell>
        <mxCell id="1U2LjCZY5VgTq_Qo9Kue-244" value="" style="shape=tableRow;horizontal=0;startSize=0;swimlaneHead=0;swimlaneBody=0;fillColor=none;collapsible=0;dropTarget=0;points=[[0,0.5],[1,0.5]];portConstraint=eastwest;top=0;left=0;right=0;bottom=0;" vertex="1" parent="1U2LjCZY5VgTq_Qo9Kue-240">
          <mxGeometry y="60" width="180" height="30" as="geometry" />
        </mxCell>
        <mxCell id="1U2LjCZY5VgTq_Qo9Kue-245" value="" style="shape=partialRectangle;connectable=0;fillColor=none;top=0;left=0;bottom=0;right=0;editable=1;overflow=hidden;whiteSpace=wrap;html=1;" vertex="1" parent="1U2LjCZY5VgTq_Qo9Kue-244">
          <mxGeometry width="30" height="30" as="geometry">
            <mxRectangle width="30" height="30" as="alternateBounds" />
          </mxGeometry>
        </mxCell>
        <mxCell id="1U2LjCZY5VgTq_Qo9Kue-246" value="Name" style="shape=partialRectangle;connectable=0;fillColor=none;top=0;left=0;bottom=0;right=0;align=left;spacingLeft=6;overflow=hidden;whiteSpace=wrap;html=1;" vertex="1" parent="1U2LjCZY5VgTq_Qo9Kue-244">
          <mxGeometry x="30" width="150" height="30" as="geometry">
            <mxRectangle width="150" height="30" as="alternateBounds" />
          </mxGeometry>
        </mxCell>
        <mxCell id="1U2LjCZY5VgTq_Qo9Kue-247" value="" style="shape=tableRow;horizontal=0;startSize=0;swimlaneHead=0;swimlaneBody=0;fillColor=none;collapsible=0;dropTarget=0;points=[[0,0.5],[1,0.5]];portConstraint=eastwest;top=0;left=0;right=0;bottom=0;" vertex="1" parent="1U2LjCZY5VgTq_Qo9Kue-240">
          <mxGeometry y="90" width="180" height="30" as="geometry" />
        </mxCell>
        <mxCell id="1U2LjCZY5VgTq_Qo9Kue-248" value="" style="shape=partialRectangle;connectable=0;fillColor=none;top=0;left=0;bottom=0;right=0;editable=1;overflow=hidden;whiteSpace=wrap;html=1;" vertex="1" parent="1U2LjCZY5VgTq_Qo9Kue-247">
          <mxGeometry width="30" height="30" as="geometry">
            <mxRectangle width="30" height="30" as="alternateBounds" />
          </mxGeometry>
        </mxCell>
        <mxCell id="1U2LjCZY5VgTq_Qo9Kue-249" value="Nationality" style="shape=partialRectangle;connectable=0;fillColor=none;top=0;left=0;bottom=0;right=0;align=left;spacingLeft=6;overflow=hidden;whiteSpace=wrap;html=1;" vertex="1" parent="1U2LjCZY5VgTq_Qo9Kue-247">
          <mxGeometry x="30" width="150" height="30" as="geometry">
            <mxRectangle width="150" height="30" as="alternateBounds" />
          </mxGeometry>
        </mxCell>
        <mxCell id="1U2LjCZY5VgTq_Qo9Kue-250" value="" style="shape=tableRow;horizontal=0;startSize=0;swimlaneHead=0;swimlaneBody=0;fillColor=none;collapsible=0;dropTarget=0;points=[[0,0.5],[1,0.5]];portConstraint=eastwest;top=0;left=0;right=0;bottom=0;" vertex="1" parent="1U2LjCZY5VgTq_Qo9Kue-240">
          <mxGeometry y="120" width="180" height="30" as="geometry" />
        </mxCell>
        <mxCell id="1U2LjCZY5VgTq_Qo9Kue-251" value="" style="shape=partialRectangle;connectable=0;fillColor=none;top=0;left=0;bottom=0;right=0;editable=1;overflow=hidden;whiteSpace=wrap;html=1;" vertex="1" parent="1U2LjCZY5VgTq_Qo9Kue-250">
          <mxGeometry width="30" height="30" as="geometry">
            <mxRectangle width="30" height="30" as="alternateBounds" />
          </mxGeometry>
        </mxCell>
        <mxCell id="1U2LjCZY5VgTq_Qo9Kue-252" value="B-date" style="shape=partialRectangle;connectable=0;fillColor=none;top=0;left=0;bottom=0;right=0;align=left;spacingLeft=6;overflow=hidden;whiteSpace=wrap;html=1;" vertex="1" parent="1U2LjCZY5VgTq_Qo9Kue-250">
          <mxGeometry x="30" width="150" height="30" as="geometry">
            <mxRectangle width="150" height="30" as="alternateBounds" />
          </mxGeometry>
        </mxCell>
        <mxCell id="1U2LjCZY5VgTq_Qo9Kue-253" value="Students" style="shape=table;startSize=30;container=1;collapsible=1;childLayout=tableLayout;fixedRows=1;rowLines=0;fontStyle=1;align=center;resizeLast=1;html=1;" vertex="1" parent="1">
          <mxGeometry x="870" y="60" width="180" height="210" as="geometry" />
        </mxCell>
        <mxCell id="1U2LjCZY5VgTq_Qo9Kue-254" value="" style="shape=tableRow;horizontal=0;startSize=0;swimlaneHead=0;swimlaneBody=0;fillColor=none;collapsible=0;dropTarget=0;points=[[0,0.5],[1,0.5]];portConstraint=eastwest;top=0;left=0;right=0;bottom=1;" vertex="1" parent="1U2LjCZY5VgTq_Qo9Kue-253">
          <mxGeometry y="30" width="180" height="30" as="geometry" />
        </mxCell>
        <mxCell id="1U2LjCZY5VgTq_Qo9Kue-255" value="PK" style="shape=partialRectangle;connectable=0;fillColor=none;top=0;left=0;bottom=0;right=0;fontStyle=1;overflow=hidden;whiteSpace=wrap;html=1;" vertex="1" parent="1U2LjCZY5VgTq_Qo9Kue-254">
          <mxGeometry width="30" height="30" as="geometry">
            <mxRectangle width="30" height="30" as="alternateBounds" />
          </mxGeometry>
        </mxCell>
        <mxCell id="1U2LjCZY5VgTq_Qo9Kue-256" value="student_id" style="shape=partialRectangle;connectable=0;fillColor=none;top=0;left=0;bottom=0;right=0;align=left;spacingLeft=6;fontStyle=5;overflow=hidden;whiteSpace=wrap;html=1;" vertex="1" parent="1U2LjCZY5VgTq_Qo9Kue-254">
          <mxGeometry x="30" width="150" height="30" as="geometry">
            <mxRectangle width="150" height="30" as="alternateBounds" />
          </mxGeometry>
        </mxCell>
        <mxCell id="1U2LjCZY5VgTq_Qo9Kue-257" value="" style="shape=tableRow;horizontal=0;startSize=0;swimlaneHead=0;swimlaneBody=0;fillColor=none;collapsible=0;dropTarget=0;points=[[0,0.5],[1,0.5]];portConstraint=eastwest;top=0;left=0;right=0;bottom=0;" vertex="1" parent="1U2LjCZY5VgTq_Qo9Kue-253">
          <mxGeometry y="60" width="180" height="30" as="geometry" />
        </mxCell>
        <mxCell id="1U2LjCZY5VgTq_Qo9Kue-258" value="" style="shape=partialRectangle;connectable=0;fillColor=none;top=0;left=0;bottom=0;right=0;editable=1;overflow=hidden;whiteSpace=wrap;html=1;" vertex="1" parent="1U2LjCZY5VgTq_Qo9Kue-257">
          <mxGeometry width="30" height="30" as="geometry">
            <mxRectangle width="30" height="30" as="alternateBounds" />
          </mxGeometry>
        </mxCell>
        <mxCell id="1U2LjCZY5VgTq_Qo9Kue-259" value="name" style="shape=partialRectangle;connectable=0;fillColor=none;top=0;left=0;bottom=0;right=0;align=left;spacingLeft=6;overflow=hidden;whiteSpace=wrap;html=1;" vertex="1" parent="1U2LjCZY5VgTq_Qo9Kue-257">
          <mxGeometry x="30" width="150" height="30" as="geometry">
            <mxRectangle width="150" height="30" as="alternateBounds" />
          </mxGeometry>
        </mxCell>
        <mxCell id="1U2LjCZY5VgTq_Qo9Kue-260" value="" style="shape=tableRow;horizontal=0;startSize=0;swimlaneHead=0;swimlaneBody=0;fillColor=none;collapsible=0;dropTarget=0;points=[[0,0.5],[1,0.5]];portConstraint=eastwest;top=0;left=0;right=0;bottom=0;" vertex="1" parent="1U2LjCZY5VgTq_Qo9Kue-253">
          <mxGeometry y="90" width="180" height="30" as="geometry" />
        </mxCell>
        <mxCell id="1U2LjCZY5VgTq_Qo9Kue-261" value="" style="shape=partialRectangle;connectable=0;fillColor=none;top=0;left=0;bottom=0;right=0;editable=1;overflow=hidden;whiteSpace=wrap;html=1;" vertex="1" parent="1U2LjCZY5VgTq_Qo9Kue-260">
          <mxGeometry width="30" height="30" as="geometry">
            <mxRectangle width="30" height="30" as="alternateBounds" />
          </mxGeometry>
        </mxCell>
        <mxCell id="1U2LjCZY5VgTq_Qo9Kue-262" value="DOB" style="shape=partialRectangle;connectable=0;fillColor=none;top=0;left=0;bottom=0;right=0;align=left;spacingLeft=6;overflow=hidden;whiteSpace=wrap;html=1;" vertex="1" parent="1U2LjCZY5VgTq_Qo9Kue-260">
          <mxGeometry x="30" width="150" height="30" as="geometry">
            <mxRectangle width="150" height="30" as="alternateBounds" />
          </mxGeometry>
        </mxCell>
        <mxCell id="1U2LjCZY5VgTq_Qo9Kue-263" value="" style="shape=tableRow;horizontal=0;startSize=0;swimlaneHead=0;swimlaneBody=0;fillColor=none;collapsible=0;dropTarget=0;points=[[0,0.5],[1,0.5]];portConstraint=eastwest;top=0;left=0;right=0;bottom=0;" vertex="1" parent="1U2LjCZY5VgTq_Qo9Kue-253">
          <mxGeometry y="120" width="180" height="30" as="geometry" />
        </mxCell>
        <mxCell id="1U2LjCZY5VgTq_Qo9Kue-264" value="" style="shape=partialRectangle;connectable=0;fillColor=none;top=0;left=0;bottom=0;right=0;editable=1;overflow=hidden;whiteSpace=wrap;html=1;" vertex="1" parent="1U2LjCZY5VgTq_Qo9Kue-263">
          <mxGeometry width="30" height="30" as="geometry">
            <mxRectangle width="30" height="30" as="alternateBounds" />
          </mxGeometry>
        </mxCell>
        <mxCell id="1U2LjCZY5VgTq_Qo9Kue-265" value="Age" style="shape=partialRectangle;connectable=0;fillColor=none;top=0;left=0;bottom=0;right=0;align=left;spacingLeft=6;overflow=hidden;whiteSpace=wrap;html=1;" vertex="1" parent="1U2LjCZY5VgTq_Qo9Kue-263">
          <mxGeometry x="30" width="150" height="30" as="geometry">
            <mxRectangle width="150" height="30" as="alternateBounds" />
          </mxGeometry>
        </mxCell>
        <mxCell id="1U2LjCZY5VgTq_Qo9Kue-266" value="" style="shape=tableRow;horizontal=0;startSize=0;swimlaneHead=0;swimlaneBody=0;fillColor=none;collapsible=0;dropTarget=0;points=[[0,0.5],[1,0.5]];portConstraint=eastwest;top=0;left=0;right=0;bottom=0;" vertex="1" parent="1U2LjCZY5VgTq_Qo9Kue-253">
          <mxGeometry y="150" width="180" height="30" as="geometry" />
        </mxCell>
        <mxCell id="1U2LjCZY5VgTq_Qo9Kue-267" value="FK" style="shape=partialRectangle;connectable=0;fillColor=none;top=0;left=0;bottom=0;right=0;editable=1;overflow=hidden;whiteSpace=wrap;html=1;" vertex="1" parent="1U2LjCZY5VgTq_Qo9Kue-266">
          <mxGeometry width="30" height="30" as="geometry">
            <mxRectangle width="30" height="30" as="alternateBounds" />
          </mxGeometry>
        </mxCell>
        <mxCell id="1U2LjCZY5VgTq_Qo9Kue-268" value="book_no" style="shape=partialRectangle;connectable=0;fillColor=none;top=0;left=0;bottom=0;right=0;align=left;spacingLeft=6;overflow=hidden;whiteSpace=wrap;html=1;" vertex="1" parent="1U2LjCZY5VgTq_Qo9Kue-266">
          <mxGeometry x="30" width="150" height="30" as="geometry">
            <mxRectangle width="150" height="30" as="alternateBounds" />
          </mxGeometry>
        </mxCell>
        <mxCell id="1U2LjCZY5VgTq_Qo9Kue-269" value="" style="shape=tableRow;horizontal=0;startSize=0;swimlaneHead=0;swimlaneBody=0;fillColor=none;collapsible=0;dropTarget=0;points=[[0,0.5],[1,0.5]];portConstraint=eastwest;top=0;left=0;right=0;bottom=0;" vertex="1" parent="1U2LjCZY5VgTq_Qo9Kue-253">
          <mxGeometry y="180" width="180" height="30" as="geometry" />
        </mxCell>
        <mxCell id="1U2LjCZY5VgTq_Qo9Kue-270" value="" style="shape=partialRectangle;connectable=0;fillColor=none;top=0;left=0;bottom=0;right=0;editable=1;overflow=hidden;whiteSpace=wrap;html=1;" vertex="1" parent="1U2LjCZY5VgTq_Qo9Kue-269">
          <mxGeometry width="30" height="30" as="geometry">
            <mxRectangle width="30" height="30" as="alternateBounds" />
          </mxGeometry>
        </mxCell>
        <mxCell id="1U2LjCZY5VgTq_Qo9Kue-271" value="No_of_books" style="shape=partialRectangle;connectable=0;fillColor=none;top=0;left=0;bottom=0;right=0;align=left;spacingLeft=6;overflow=hidden;whiteSpace=wrap;html=1;" vertex="1" parent="1U2LjCZY5VgTq_Qo9Kue-269">
          <mxGeometry x="30" width="150" height="30" as="geometry">
            <mxRectangle width="150" height="30" as="alternateBounds" />
          </mxGeometry>
        </mxCell>
        <mxCell id="1U2LjCZY5VgTq_Qo9Kue-272" value="Authors_research" style="shape=table;startSize=30;container=1;collapsible=1;childLayout=tableLayout;fixedRows=1;rowLines=0;fontStyle=1;align=center;resizeLast=1;html=1;" vertex="1" parent="1">
          <mxGeometry x="870" y="290" width="180" height="150" as="geometry" />
        </mxCell>
        <mxCell id="1U2LjCZY5VgTq_Qo9Kue-273" value="" style="shape=tableRow;horizontal=0;startSize=0;swimlaneHead=0;swimlaneBody=0;fillColor=none;collapsible=0;dropTarget=0;points=[[0,0.5],[1,0.5]];portConstraint=eastwest;top=0;left=0;right=0;bottom=1;" vertex="1" parent="1U2LjCZY5VgTq_Qo9Kue-272">
          <mxGeometry y="30" width="180" height="30" as="geometry" />
        </mxCell>
        <mxCell id="1U2LjCZY5VgTq_Qo9Kue-274" value="PK" style="shape=partialRectangle;connectable=0;fillColor=none;top=0;left=0;bottom=0;right=0;fontStyle=1;overflow=hidden;whiteSpace=wrap;html=1;strokeColor=default;" vertex="1" parent="1U2LjCZY5VgTq_Qo9Kue-273">
          <mxGeometry width="30" height="30" as="geometry">
            <mxRectangle width="30" height="30" as="alternateBounds" />
          </mxGeometry>
        </mxCell>
        <mxCell id="1U2LjCZY5VgTq_Qo9Kue-275" value="author_no" style="shape=partialRectangle;connectable=0;fillColor=none;top=0;left=0;bottom=0;right=0;align=left;spacingLeft=6;fontStyle=5;overflow=hidden;whiteSpace=wrap;html=1;" vertex="1" parent="1U2LjCZY5VgTq_Qo9Kue-273">
          <mxGeometry x="30" width="150" height="30" as="geometry">
            <mxRectangle width="150" height="30" as="alternateBounds" />
          </mxGeometry>
        </mxCell>
        <mxCell id="1U2LjCZY5VgTq_Qo9Kue-276" value="" style="shape=tableRow;horizontal=0;startSize=0;swimlaneHead=0;swimlaneBody=0;fillColor=none;collapsible=0;dropTarget=0;points=[[0,0.5],[1,0.5]];portConstraint=eastwest;top=0;left=0;right=0;bottom=0;" vertex="1" parent="1U2LjCZY5VgTq_Qo9Kue-272">
          <mxGeometry y="60" width="180" height="30" as="geometry" />
        </mxCell>
        <mxCell id="1U2LjCZY5VgTq_Qo9Kue-277" value="PK" style="shape=partialRectangle;connectable=0;fillColor=none;top=0;left=0;bottom=0;right=0;editable=1;overflow=hidden;whiteSpace=wrap;html=1;" vertex="1" parent="1U2LjCZY5VgTq_Qo9Kue-276">
          <mxGeometry width="30" height="30" as="geometry">
            <mxRectangle width="30" height="30" as="alternateBounds" />
          </mxGeometry>
        </mxCell>
        <mxCell id="1U2LjCZY5VgTq_Qo9Kue-278" value="research_no" style="shape=partialRectangle;connectable=0;fillColor=none;top=0;left=0;bottom=0;right=0;align=left;spacingLeft=6;overflow=hidden;whiteSpace=wrap;html=1;" vertex="1" parent="1U2LjCZY5VgTq_Qo9Kue-276">
          <mxGeometry x="30" width="150" height="30" as="geometry">
            <mxRectangle width="150" height="30" as="alternateBounds" />
          </mxGeometry>
        </mxCell>
        <mxCell id="1U2LjCZY5VgTq_Qo9Kue-279" value="" style="shape=tableRow;horizontal=0;startSize=0;swimlaneHead=0;swimlaneBody=0;fillColor=none;collapsible=0;dropTarget=0;points=[[0,0.5],[1,0.5]];portConstraint=eastwest;top=0;left=0;right=0;bottom=0;" vertex="1" parent="1U2LjCZY5VgTq_Qo9Kue-272">
          <mxGeometry y="90" width="180" height="30" as="geometry" />
        </mxCell>
        <mxCell id="1U2LjCZY5VgTq_Qo9Kue-280" value="" style="shape=partialRectangle;connectable=0;fillColor=none;top=0;left=0;bottom=0;right=0;editable=1;overflow=hidden;whiteSpace=wrap;html=1;" vertex="1" parent="1U2LjCZY5VgTq_Qo9Kue-279">
          <mxGeometry width="30" height="30" as="geometry">
            <mxRectangle width="30" height="30" as="alternateBounds" />
          </mxGeometry>
        </mxCell>
        <mxCell id="1U2LjCZY5VgTq_Qo9Kue-281" value="vol" style="shape=partialRectangle;connectable=0;fillColor=none;top=0;left=0;bottom=0;right=0;align=left;spacingLeft=6;overflow=hidden;whiteSpace=wrap;html=1;" vertex="1" parent="1U2LjCZY5VgTq_Qo9Kue-279">
          <mxGeometry x="30" width="150" height="30" as="geometry">
            <mxRectangle width="150" height="30" as="alternateBounds" />
          </mxGeometry>
        </mxCell>
        <mxCell id="1U2LjCZY5VgTq_Qo9Kue-282" value="" style="shape=tableRow;horizontal=0;startSize=0;swimlaneHead=0;swimlaneBody=0;fillColor=none;collapsible=0;dropTarget=0;points=[[0,0.5],[1,0.5]];portConstraint=eastwest;top=0;left=0;right=0;bottom=0;" vertex="1" parent="1U2LjCZY5VgTq_Qo9Kue-272">
          <mxGeometry y="120" width="180" height="30" as="geometry" />
        </mxCell>
        <mxCell id="1U2LjCZY5VgTq_Qo9Kue-283" value="" style="shape=partialRectangle;connectable=0;fillColor=none;top=0;left=0;bottom=0;right=0;editable=1;overflow=hidden;whiteSpace=wrap;html=1;" vertex="1" parent="1U2LjCZY5VgTq_Qo9Kue-282">
          <mxGeometry width="30" height="30" as="geometry">
            <mxRectangle width="30" height="30" as="alternateBounds" />
          </mxGeometry>
        </mxCell>
        <mxCell id="1U2LjCZY5VgTq_Qo9Kue-284" value="journal" style="shape=partialRectangle;connectable=0;fillColor=none;top=0;left=0;bottom=0;right=0;align=left;spacingLeft=6;overflow=hidden;whiteSpace=wrap;html=1;" vertex="1" parent="1U2LjCZY5VgTq_Qo9Kue-282">
          <mxGeometry x="30" width="150" height="30" as="geometry">
            <mxRectangle width="150" height="30" as="alternateBounds" />
          </mxGeometry>
        </mxCell>
        <mxCell id="1U2LjCZY5VgTq_Qo9Kue-285" value="Book_type" style="shape=table;startSize=30;container=1;collapsible=1;childLayout=tableLayout;fixedRows=1;rowLines=0;fontStyle=1;align=center;resizeLast=1;html=1;" vertex="1" parent="1">
          <mxGeometry x="870" y="460" width="180" height="120" as="geometry" />
        </mxCell>
        <mxCell id="1U2LjCZY5VgTq_Qo9Kue-286" value="" style="shape=tableRow;horizontal=0;startSize=0;swimlaneHead=0;swimlaneBody=0;fillColor=none;collapsible=0;dropTarget=0;points=[[0,0.5],[1,0.5]];portConstraint=eastwest;top=0;left=0;right=0;bottom=1;" vertex="1" parent="1U2LjCZY5VgTq_Qo9Kue-285">
          <mxGeometry y="30" width="180" height="30" as="geometry" />
        </mxCell>
        <mxCell id="1U2LjCZY5VgTq_Qo9Kue-287" value="PK" style="shape=partialRectangle;connectable=0;fillColor=none;top=0;left=0;bottom=0;right=0;fontStyle=1;overflow=hidden;whiteSpace=wrap;html=1;" vertex="1" parent="1U2LjCZY5VgTq_Qo9Kue-286">
          <mxGeometry width="30" height="30" as="geometry">
            <mxRectangle width="30" height="30" as="alternateBounds" />
          </mxGeometry>
        </mxCell>
        <mxCell id="1U2LjCZY5VgTq_Qo9Kue-288" value="Book_id" style="shape=partialRectangle;connectable=0;fillColor=none;top=0;left=0;bottom=0;right=0;align=left;spacingLeft=6;fontStyle=5;overflow=hidden;whiteSpace=wrap;html=1;" vertex="1" parent="1U2LjCZY5VgTq_Qo9Kue-286">
          <mxGeometry x="30" width="150" height="30" as="geometry">
            <mxRectangle width="150" height="30" as="alternateBounds" />
          </mxGeometry>
        </mxCell>
        <mxCell id="1U2LjCZY5VgTq_Qo9Kue-289" value="" style="shape=tableRow;horizontal=0;startSize=0;swimlaneHead=0;swimlaneBody=0;fillColor=none;collapsible=0;dropTarget=0;points=[[0,0.5],[1,0.5]];portConstraint=eastwest;top=0;left=0;right=0;bottom=0;" vertex="1" parent="1U2LjCZY5VgTq_Qo9Kue-285">
          <mxGeometry y="60" width="180" height="30" as="geometry" />
        </mxCell>
        <mxCell id="1U2LjCZY5VgTq_Qo9Kue-290" value="" style="shape=partialRectangle;connectable=0;fillColor=none;top=0;left=0;bottom=0;right=0;editable=1;overflow=hidden;whiteSpace=wrap;html=1;" vertex="1" parent="1U2LjCZY5VgTq_Qo9Kue-289">
          <mxGeometry width="30" height="30" as="geometry">
            <mxRectangle width="30" height="30" as="alternateBounds" />
          </mxGeometry>
        </mxCell>
        <mxCell id="1U2LjCZY5VgTq_Qo9Kue-291" value="Type" style="shape=partialRectangle;connectable=0;fillColor=none;top=0;left=0;bottom=0;right=0;align=left;spacingLeft=6;overflow=hidden;whiteSpace=wrap;html=1;" vertex="1" parent="1U2LjCZY5VgTq_Qo9Kue-289">
          <mxGeometry x="30" width="150" height="30" as="geometry">
            <mxRectangle width="150" height="30" as="alternateBounds" />
          </mxGeometry>
        </mxCell>
        <mxCell id="1U2LjCZY5VgTq_Qo9Kue-292" value="" style="shape=tableRow;horizontal=0;startSize=0;swimlaneHead=0;swimlaneBody=0;fillColor=none;collapsible=0;dropTarget=0;points=[[0,0.5],[1,0.5]];portConstraint=eastwest;top=0;left=0;right=0;bottom=0;" vertex="1" parent="1U2LjCZY5VgTq_Qo9Kue-285">
          <mxGeometry y="90" width="180" height="30" as="geometry" />
        </mxCell>
        <mxCell id="1U2LjCZY5VgTq_Qo9Kue-293" value="" style="shape=partialRectangle;connectable=0;fillColor=none;top=0;left=0;bottom=0;right=0;editable=1;overflow=hidden;whiteSpace=wrap;html=1;" vertex="1" parent="1U2LjCZY5VgTq_Qo9Kue-292">
          <mxGeometry width="30" height="30" as="geometry">
            <mxRectangle width="30" height="30" as="alternateBounds" />
          </mxGeometry>
        </mxCell>
        <mxCell id="1U2LjCZY5VgTq_Qo9Kue-294" value="author_id" style="shape=partialRectangle;connectable=0;fillColor=none;top=0;left=0;bottom=0;right=0;align=left;spacingLeft=6;overflow=hidden;whiteSpace=wrap;html=1;" vertex="1" parent="1U2LjCZY5VgTq_Qo9Kue-292">
          <mxGeometry x="30" width="150" height="30" as="geometry">
            <mxRectangle width="150" height="30" as="alternateBounds" />
          </mxGeometry>
        </mxCell>
      </root>
    </mxGraphModel>
  </diagram>
</mxfile>
